<svg width="68" height="68" viewBox="0 0 68 68" fill="none" xmlns="http://www.w3.org/2000/svg">
<path d="M37.8395 0.862136L66.9178 29.9404C67.071 31.2357 67.1499 32.5539 67.1499 33.8905C67.1499 52.2598 52.2587 67.151 33.8894 67.151C15.5201 67.151 0.628906 52.2598 0.628906 33.8905C0.628907 15.5212 15.5201 0.630011 33.8894 0.630013C35.226 0.630013 36.5442 0.708853 37.8395 0.862136Z" fill="#63C1A0"/>
<path d="M66.9199 29.9391C51.7089 28.1386 39.6434 16.0732 37.8429 0.862115L66.9199 29.9391Z" fill="#258B74"/>
<path d="M37.8395 0.862136L66.9178 29.9404C67.071 31.2357 67.1499 32.5539 67.1499 33.8905C67.1499 52.2598 52.2587 67.151 33.8894 67.151C15.5201 67.151 0.628906 52.2598 0.628906 33.8905C0.628907 15.5212 15.5201 0.630011 33.8894 0.630013C35.226 0.630013 36.5442 0.708853 37.8395 0.862136Z" fill="#63C1A0"/>
<path d="M66.9199 29.9391C51.7089 28.1386 39.6434 16.0732 37.8429 0.862115L66.9199 29.9391Z" fill="#258B74"/>
<path d="M18.5745 28.7188C17.7835 28.9116 17.0239 28.9143 16.2958 28.727C15.2647 28.4507 14.5237 27.8903 14.0729 27.0457C13.6579 26.2418 13.5759 25.3715 13.8269 24.4348C14.0371 23.6506 14.4407 23.0155 15.0379 22.5295C15.892 21.84 16.9072 21.6528 18.0835 21.968C18.8968 22.186 19.546 22.5662 20.031 23.1086C20.0719 22.9561 20.1103 22.8419 20.1462 22.7659C20.2064 22.6575 20.3236 22.6266 20.4979 22.6733L19.9789 24.7407L19.674 24.659C19.6353 23.38 19.1096 22.5971 18.0969 22.3102C17.7702 22.2226 17.4586 22.2092 17.1621 22.2698C16.2379 22.4658 15.5774 23.3045 15.1805 24.7858C15.1435 24.9238 15.1102 25.0627 15.0805 25.2026C14.6982 27.007 15.1388 28.0784 16.4022 28.417C17.4861 28.6996 18.3685 28.2823 19.0492 27.165L19.3433 27.2438L18.7829 29.335C18.703 29.3136 18.6396 29.2889 18.5927 29.2607C18.4935 29.1952 18.4874 29.0146 18.5745 28.7188Z" fill="white"/>
<path d="M24.8257 23.7746C25.5955 23.9809 26.216 24.3806 26.6875 24.9739C27.3625 25.8241 27.5394 26.8483 27.2184 28.0464C26.9479 29.0557 26.3895 29.7894 25.5429 30.2475C24.7444 30.6717 23.8913 30.7622 22.9836 30.519C22.1921 30.3069 21.5573 29.8877 21.0791 29.2615C20.4317 28.3954 20.2637 27.3814 20.575 26.2196C20.8435 25.2175 21.4037 24.4921 22.2555 24.0432C23.0541 23.619 23.9108 23.5295 24.8257 23.7746ZM23.098 30.2228C24.3925 30.5618 25.3206 29.6976 25.8824 27.63C26.4121 25.6239 26.0218 24.4375 24.7114 24.0708C23.3951 23.7259 22.459 24.5764 21.903 26.6221C21.3675 28.65 21.7658 29.8502 23.098 30.2228Z" fill="white"/>
<path d="M37.17 27.199L37.0941 27.4822L36.2228 27.2487L34.6234 33.2176L35.2116 33.3752C35.2479 33.3849 35.2832 33.3983 35.3176 33.4153C35.4279 33.4682 35.4617 33.5745 35.4189 33.7343L32.5543 32.9667L32.6301 32.6835L33.5015 32.917L34.9024 27.6888L30.9654 32.6227L30.7475 32.5643L29.6877 27.1087L28.4911 31.5745L29.0684 31.7291C29.2025 31.7806 29.2752 31.9013 29.2866 32.0911L27.0973 31.5045L27.1732 31.2213L28.0446 31.4548L29.6439 25.4859L28.7725 25.2524L28.8484 24.9692L30.5694 25.4304L31.6383 31.1569L35.1768 26.6649L37.17 27.199Z" fill="white"/>
<path d="M38.9153 34.6711L36.0071 33.8919L36.0829 33.6087L36.9543 33.8422L38.5537 27.8733L37.6823 27.6398L37.7582 27.3566L40.6664 28.1358L40.5905 28.419L39.7191 28.1856L38.1198 34.1544L38.7079 34.312C38.7443 34.3218 38.7796 34.3351 38.8139 34.3521C38.9243 34.405 38.9581 34.5114 38.9153 34.6711Z" fill="white"/>
<path d="M45.895 29.8404L45.9708 29.5572L48.1928 30.1526L48.1169 30.4357L47.2456 30.2023L45.5849 36.3999L45.0002 36.36L42.1495 30.0509L40.8537 34.887L41.4854 35.0563C41.6195 35.1078 41.6922 35.2284 41.7036 35.4183L39.4599 34.817L39.5357 34.5339L40.4071 34.7673L42.0065 28.7985L41.1351 28.565L41.211 28.2818L42.8557 28.7225L45.5615 34.7009L46.799 30.0826L45.895 29.8404Z" fill="white"/>
<path d="M51.7231 34.9276L54.6095 35.701L54.5336 35.9842L53.7603 35.777L53.0423 38.4565L52.0319 37.8705C51.4952 38.0147 50.9219 38.005 50.3119 37.8416C49.564 37.6412 48.9533 37.248 48.4799 36.6619C47.7851 35.7987 47.6002 34.7607 47.9251 33.548C48.1994 32.5242 48.7461 31.7912 49.565 31.3491C50.3398 30.9263 51.1883 30.8384 52.1105 31.0856C52.6406 31.2276 53.1124 31.4708 53.5261 31.8151L54.5589 31.8817L54.0267 34.0856L53.7217 34.0039C53.7306 33.477 53.6842 33.0404 53.5824 32.694C53.3798 32.0561 52.9009 31.6359 52.1457 31.4335C52.0731 31.4141 51.9995 31.3982 51.9249 31.386C50.654 31.1623 49.7598 32.0161 49.2423 33.9477C49.1703 34.2163 49.114 34.4698 49.0736 34.708C48.8194 36.2665 49.2914 37.2062 50.4895 37.5273C51.0632 37.681 51.5976 37.6179 52.0928 37.3382L52.5948 35.4647L51.6472 35.2108L51.7231 34.9276Z" fill="white"/>
<path d="M21.8091 40.6313C21.6866 41.0888 21.4181 41.4371 21.0038 41.6763C20.4092 42.0073 19.6762 42.0561 18.8049 41.8226C18.0569 41.6222 17.4567 41.2629 17.004 40.7447C16.9671 40.8827 16.9326 40.9824 16.9005 41.0438C16.835 41.143 16.7115 41.1683 16.53 41.1197L17.14 38.8432L17.5103 38.9424C17.4626 39.1787 17.4405 39.4063 17.4441 39.6252C17.4327 40.6261 17.8881 41.2501 18.8103 41.4972C19.0645 41.5653 19.3131 41.5813 19.5563 41.5453C20.0755 41.4665 20.4032 41.173 20.5394 40.6647C20.588 40.4831 20.5928 40.3054 20.5538 40.1315C20.4685 39.7818 20.1472 39.3688 19.59 38.8926C18.9732 38.3771 18.6191 38.0721 18.5276 37.9776C17.9501 37.4026 17.7431 36.8101 17.9065 36.2001C18.0174 35.7862 18.2616 35.4703 18.6391 35.2524C19.1935 34.9262 19.8773 34.872 20.6906 35.0899C21.3441 35.265 21.9089 35.5681 22.3849 35.9992C22.4024 35.9338 22.4216 35.8767 22.4425 35.8278C22.5065 35.7049 22.6366 35.6697 22.8327 35.7223L22.3161 37.6502L21.9457 37.5509C22.0528 37.1516 22.0462 36.784 21.926 36.4483C21.7286 35.9362 21.3285 35.5994 20.7258 35.4379C20.5152 35.3815 20.3104 35.3616 20.1113 35.3783C19.6217 35.4339 19.3156 35.6904 19.193 36.1479C19.1444 36.3295 19.1405 36.5035 19.1815 36.6702C19.2595 37.018 19.5755 37.4217 20.1294 37.8814C20.7462 38.3969 21.103 38.7066 21.1997 38.8103C21.7753 39.3926 21.9784 39.9996 21.8091 40.6313Z" fill="white"/>
<path d="M27.4873 36.9111C28.257 37.1173 28.8776 37.5171 29.349 38.1104C30.024 38.9606 30.201 39.9847 29.8799 41.1829C29.6095 42.1922 29.051 42.9259 28.2045 43.3839C27.4059 43.8082 26.5528 43.8987 25.6451 43.6555C24.8536 43.4434 24.2188 43.0242 23.7406 42.398C23.0933 41.5319 22.9252 40.5179 23.2365 39.3561C23.505 38.354 24.0652 37.6285 24.9171 37.1797C25.7156 36.7555 26.5724 36.6659 27.4873 36.9111ZM25.7595 43.3592C27.054 43.6983 27.9821 42.8341 28.5439 40.7665C29.0737 38.7604 28.6833 37.574 27.3729 37.2073C26.0566 36.8624 25.1205 37.7128 24.5646 39.7586C24.029 41.7865 24.4273 42.9867 25.7595 43.3592Z" fill="white"/>
<path d="M35.1662 38.9687C35.9359 39.1749 36.5565 39.5747 37.028 40.168C37.7029 41.0181 37.8799 42.0423 37.5589 43.2404C37.2884 44.2498 36.7299 44.9835 35.8834 45.4415C35.0849 45.8657 34.2317 45.9562 33.3241 45.713C32.5326 45.5009 31.8977 45.0818 31.4196 44.4556C30.7722 43.5894 30.6042 42.5755 30.9155 41.4136C31.184 40.4116 31.7442 39.6861 32.596 39.2372C33.3946 38.813 34.2513 38.7235 35.1662 38.9687ZM33.4385 45.4168C34.7329 45.7559 35.6611 44.8916 36.2229 42.8241C36.7526 40.818 36.3623 39.6316 35.0518 39.2649C33.7356 38.92 32.7995 39.7704 32.2435 41.8162C31.7079 43.8441 32.1063 45.0443 33.4385 45.4168Z" fill="white"/>
<path d="M43.8293 41.7102L43.9052 41.427L46.1272 42.0224L46.0513 42.3056L45.1799 42.0721L43.5193 48.2697L42.9346 48.2298L40.0839 41.9207L38.7881 46.7568L39.4198 46.9261C39.5539 46.9776 39.6266 47.0983 39.638 47.2881L37.3942 46.6869L37.4701 46.4037L38.3415 46.6372L39.9408 40.6683L39.0695 40.4348L39.1454 40.1516L40.7901 40.5923L43.4959 46.5707L44.7334 41.9524L43.8293 41.7102Z" fill="white"/>
</svg>
